<?xml version="1.0" encoding="utf-8"?>
<!-- Generator: Adobe Illustrator 19.0.0, SVG Export Plug-In . SVG Version: 6.00 Build 0)  -->
<svg version="1.1" id="Layer_1" xmlns="http://www.w3.org/2000/svg" xmlns:xlink="http://www.w3.org/1999/xlink" x="0px" y="0px"
	 viewBox="-385 241 189 80" style="enable-background:new -385 241 189 80;" xml:space="preserve">
<style type="text/css">
	.st0{fill:#FFFFFF;}
</style>
<g>
	<path id="XMLID_6_" class="st0" d="M-336.9,283.7c-2.6,0-5.2,0-7.8,0c-0.5-1.4-0.2-3.9-0.2-5.7c2.3-0.7,21.4-0.2,27.7-0.2
		c0.6-0.2,1.3-0.5,1.9-0.7c0.7-0.4,1-1.3,1.6-1.9c0.1-1,0.4-2.2-0.2-2.9c-0.9-3-5.7-2.5-9.6-2.4c0,1.9,0,5.8,0,5.8h-5.9
		c0,0,0-7.8,0-11.7c11.8-0.1,19.3-1.2,21.5,8.6c0.4,1.6,0,3.7-0.5,5c-0.6,1.3-1.8,3-2.9,3.8c-0.7,0.5-2,0.7-2.4,1.5
		c1,0.8,6,9.4,6,9.4h2.9l7.1-21l2.6-7.4h5.7l1.9,5.3l7.9,23h2.1v-28.3h5.9c0,0,15,21,15.9,23.5c0.1,0,0.1,0,0.2,0
		c0-7.8,0-15.7,0-23.5c4.8,0,20.5-0.2,22.9,0.5c4.1,1.2,7.9,3.7,10.2,6.9c1.1,1.6,2.1,3.7,2.8,5.7c1.3,3.9,0.2,8.8-1.2,11.5
		c-4.7,9-12.3,9.7-25.8,9.6v-25.6h5.7c0,0,0,15.3,0,19.8c7.4,0.1,11.4-1.3,14.3-5.7c1.2-1.9,2.4-5.3,1.4-8.4
		c-0.4-1.3-1.2-2.6-1.9-3.6c-4.1-5.7-12.6-4.9-22.4-4.8c0,9.4,0,28.3,0,28.3h-5.7c0,0-15.3-21.4-16-23.7c-0.1,0-0.1,0-0.2,0
		c0,7.8,0,23.7,0,23.7h-11.7c0,0-7.7-19.8-8.8-24.4c-0.1,0-0.1,0-0.2,0c-0.2,2-8.4,24.4-8.4,24.4h-10.2l-7.1-11.2
		c0,0-1.6-3.2-2.1-3.4c-3.7,0-7.4,0-11,0c0,2.5,0,4.9,0,7.4c-0.9,0.6-1.3,1.8-2.1,2.4c-2,1.6-4,3.1-6.5,4.1c-2.7,1.1-7,1-9.8,0.2
		c-6.8-2.1-10.7-6.4-12.4-13.6c-0.6-2.6,0.1-6.6,0.7-8.2c2.2-6.1,5.9-10.1,12.4-11.9c1.1-0.1,2.3-0.1,3.4-0.2
		c5.2,0,7.6,1.3,10.5,3.4c1,0.7,2.2,1.3,2.6,2.6c-1.3,0.8-2.8,3.3-4.3,3.6c-1.7-2.7-6.9-5.2-11.7-3.6c-4.3,1.4-9.7,7.1-7.8,13.9
		c1.1,3.9,3.7,6.8,7.2,8.2c3.8,1.5,10.8-0.6,11.9-3.1C-336.9,287.3-336.9,285.5-336.9,283.7z"/>
	<path id="XMLID_4_" class="st0" d="M-329.2,285.4h5.7v12.9h-5.7V285.4z"/>
</g>
</svg>
